<svg xmlns="http://www.w3.org/2000/svg" version="1.1" viewBox="0 0 256 256" width="256" height="256">
  <rect
    style="fill:#ffffff;stroke:#087;stroke-width:16;stroke-linecap:round;stroke-linejoin:round"
    x="8" y="72" rx="8" width="176" height="176" />
  <g fill="#087">
    <path d="m 96,32 h 112 c 0,0 16,0 16,16 v 112 c 0,0 0,16 -16,16 v -128 h -128 c 0,0 0,-16 16,-16 z" />
    <path d="m 160,0 h 80 c 0,0 16,0 16,16 v 80 c 0,0 0,16 -16,16 v -96 h -96 c 0,0 0,-16 16,-16 z" />
    <path d="m 32,224 h 128 v -16 c 0,0 -25,-32 -32,-32 -7,0 -32,32 -32,32 0,0 -25,-64 -32,-64 -7,0 -32,64 -32,64 z" />
    <circle cx="116" cy="132" r="24" />
  </g>
</svg>
